<svg viewBox="0 0 1120 1120" xmlns:xlink="http://www.w3.org/1999/xlink" xmlns="http://www.w3.org/2000/svg"><defs><linearGradient id="a" x1="32.39" y1="10.39" x2="45.8" y2="23.8" gradientTransform="matrix(1 0 0 -1 0 122)" gradientUnits="userSpaceOnUse"><stop offset="0" stop-color="#1a237e" stop-opacity=".4"/><stop offset="1" stop-color="#1a237e" stop-opacity="0"/></linearGradient><linearGradient id="c" x1="67.54" y1="135.21" x2="86.51" y2="154.18" gradientTransform="rotate(45 -44.278 -234.808) scale(.26458)" xlink:href="#a"/><linearGradient xlink:href="#a" id="b" gradientUnits="userSpaceOnUse" gradientTransform="matrix(.26458 0 0 -.26458 -200 32.28)" x1="32.39" y1="10.39" x2="45.8" y2="23.8"/><linearGradient xlink:href="#a" id="d" x1="240" y1="160" x2="320" y2="160" gradientUnits="userSpaceOnUse"/></defs><path d="m240 960 160-160 320 320H400Z" fill="#01579b" style="stroke:none;stroke-width:1;stroke-dasharray:none" transform="translate(200)"/><path d="m240 640 160-160h320L400 800Z" fill="#54c5f8" style="stroke:none;stroke-width:1;stroke-dasharray:none" transform="translate(200)"/><path fill="#29b6f6" d="m80 800 160-160 160 160-160 160Z" style="stroke:none;stroke-width:1;stroke-dasharray:none" transform="translate(200)"/><path d="M240 320v240L80 720 0 800V80Z" fill="#54c5f8" style="stroke:none;stroke-width:1;stroke-dasharray:none" transform="translate(200)" class="UnoptimicedTransforms"/><path d="m240 960 240-80-80-80Z" fill="url(#a)" style="fill:url(#b);stroke:none;stroke-width:0;stroke-dasharray:none" transform="translate(200)"/><path d="m240 0 160 480-160-160Z" fill="url(#c)" style="fill:url(#d);fill-opacity:1;stroke:none;stroke-width:.25934086;stroke-dasharray:none" transform="translate(200)"/><path d="M240 0v320L0 80Z" fill="#29b6f6" data-name="Capa 2" style="opacity:1;stroke:none;stroke-width:1;stroke-dasharray:none;stroke-opacity:1" transform="translate(200)" class="UnoptimicedTransforms"/><path d="M920 480H600L440 320V0Z" style="fill:#01579b;stroke:none;stroke-width:1;stroke-dasharray:none"/></svg>