<svg width="1120" height="1120" xmlns="http://www.w3.org/2000/svg">
   <defs>
      <linearGradient x1="240" y1="960" x2="400" y2="800" id="a" gradientTransform="scale(.99999 1.00001)"
         gradientUnits="userSpaceOnUse">
         <stop offset="0%" />
         <stop stop-opacity="0" offset="1" style="stop-color:#01579b;stop-opacity:0" />
      </linearGradient>
   </defs>
   <path fill="#01579b" style="display:inline" d="M720 1120H400L240 960l160-160z" transform="translate(200)" />
   <path fill="#54c5f8" style="display:inline" d="m80 800 320-320h320L240 960 80 800z" transform="translate(200)" />
   <path fill="#29b6f6" style="display:inline" d="m80 800 160-160 160 160-160 160L80 800z" transform="translate(200)" />
   <path fill="url(#a)" style="fill:url(#a)" d="M400 800 240 960l240-80z" transform="translate(200)" />
   <path fill="#01579b" style="display:inline" d="M720 480H400L0 80 240 0l480 480z" transform="translate(200)" />
   <path fill="#54c5f8" d="M200 800V80L440 0v560L200 800z" />
   <path fill="#29b6f6" style="display:inline" d="M240 0v320L0 80z" transform="translate(200)" />
</svg>