<svg xmlns="http://www.w3.org/2000/svg" xmlns:xlink="http://www.w3.org/1999/xlink" viewBox="0 0 494.95 126"><defs><linearGradient id="a" x1="32.39" y1="10.39" x2="45.8" y2="23.8" gradientTransform="matrix(1 0 0 -1 0 122)" gradientUnits="userSpaceOnUse"><stop offset="0" stop-color="#1a237e" stop-opacity=".4"/><stop offset="1" stop-color="#1a237e" stop-opacity="0"/></linearGradient><linearGradient id="b" x1="67.54" y1="135.21" x2="86.51" y2="154.18" gradientTransform="rotate(45 210.601 24.984)" xlink:href="#a"/></defs><path d="M81 54H45L27 36V0ZM27 108l18-18 36 36H45Z" fill="#01579b"/><path d="m27 72 18-18h36L45 90Z" fill="#54c5f8"/><path fill="#29b6f6" d="M8.999 89.998 27 71.995l18.003 18.003L27.001 108z"/><path d="M27 36v27L9 81l-9 9V9Z" fill="#54c5f8"/><path d="m27 108 27-9-9-9Z" fill="url(#a)"/><path d="m27 0 9 36-9-9Z" fill="url(#b)"/><path d="M27 0v36L0 9Z" fill="#29b6f6" data-name="Capa 2"/><path d="M116.51 29.52A101.39 101.39 0 0 1 135.22 28c10.41 0 17.13 1.91 21.84 6.16 3.8 3.36 5.93 8.51 5.93 14.34 0 10-6.27 16.57-14.22 19.26v.34c5.82 2 9.29 7.39 11.09 15.23 2.46 10.53 4.25 17.81 5.82 20.72H155.6c-1.23-2.13-2.91-8.62-5-18-2.24-10.42-6.27-14.34-15.12-14.67h-9.18V104h-9.75Zm9.75 34.38h10c10.42 0 17-5.71 17-14.33 0-9.75-7.06-14-17.36-14.11a40 40 0 0 0-9.63.89ZM182.37 78.69C182.59 92 191.1 97.5 201 97.5a35.65 35.65 0 0 0 15-2.8l1.68 7.06c-3.48 1.57-9.41 3.36-18 3.36-16.69 0-26.66-11-26.66-27.33s9.63-29.23 25.42-29.23c17.7 0 22.4 15.57 22.4 25.54a37.93 37.93 0 0 1-.33 4.59Zm28.89-7.06c.12-6.27-2.57-16-13.66-16-10 0-14.34 9.18-15.12 16ZM263 104l-.79-6.83h-.33a20.22 20.22 0 0 1-16.58 8.06c-11 0-16.58-7.73-16.58-15.57 0-13.1 11.65-20.27 32.6-20.16v-1.12c0-4.48-1.24-12.54-12.32-12.54a27.08 27.08 0 0 0-14.12 4l-2.24-6.49a33.58 33.58 0 0 1 17.81-4.82c16.58 0 20.61 11.31 20.61 22.18V91a75.52 75.52 0 0 0 .9 13Zm-1.46-27.66c-10.75-.23-23 1.68-23 12.2 0 6.39 4.26 9.41 9.3 9.41A13.49 13.49 0 0 0 261 88.88a10.19 10.19 0 0 0 .56-3.14ZM325.61 102c-2.57 1.35-8.28 3.14-15.56 3.14-16.36 0-27-11.09-27-27.66s11.43-28.79 29.12-28.79a33 33 0 0 1 13.67 2.8l-2.24 7.62c-2.35-1.35-6.05-2.58-11.43-2.58C299.74 56.51 293 65.7 293 77c0 12.54 8.07 20.27 18.82 20.27a28 28 0 0 0 12.09-2.69ZM350.48 34.22v15.57h14.11v7.51h-14.11v29.23c0 6.72 1.9 10.53 7.39 10.53a21.69 21.69 0 0 0 5.71-.68l.45 7.4a24.27 24.27 0 0 1-8.74 1.34c-4.59 0-8.29-1.46-10.64-4.14-2.8-2.92-3.81-7.73-3.81-14.12V57.3h-8.4v-7.51h8.4v-13ZM387.55 34.22v15.57h14.11v7.51h-14.11v29.23c0 6.72 1.9 10.53 7.39 10.53a21.69 21.69 0 0 0 5.71-.68l.45 7.4a24.23 24.23 0 0 1-8.74 1.34c-4.59 0-8.28-1.46-10.64-4.14-2.8-2.92-3.8-7.73-3.8-14.12V57.3h-8.41v-7.51h8.41v-13ZM417.56 78.69c.23 13.31 8.74 18.81 18.59 18.81a35.59 35.59 0 0 0 15-2.8l1.68 7.06c-3.47 1.57-9.41 3.36-18 3.36-16.69 0-26.66-11-26.66-27.33s9.64-29.23 25.43-29.23c17.69 0 22.4 15.57 22.4 25.54a37.5 37.5 0 0 1-.34 4.59Zm28.9-7.06c.11-6.27-2.58-16-13.67-16-10 0-14.33 9.18-15.12 16ZM468.19 66.7c0-6.38-.12-11.87-.45-16.91h8.62l.34 10.64h.45c2.46-7.28 8.4-11.87 15-11.87a10.38 10.38 0 0 1 2.8.34v9.29a15 15 0 0 0-3.36-.33c-6.94 0-11.87 5.26-13.21 12.65a27.14 27.14 0 0 0-.45 4.59V104h-9.74Z" fill="#4a4a4a"/></svg>